<mxfile host="app.diagrams.net" modified="2024-02-19T11:18:45.539Z" agent="Mozilla/5.0 (Windows NT 10.0; Win64; x64) AppleWebKit/537.36 (KHTML, like Gecko) Chrome/120.0.0.0 Safari/537.36 Edg/120.0.0.0" version="23.1.5" etag="IPTLFuBW0WZgWp71j_2E" type="github">
  <diagram name="第 1 页" id="UiX_vGIwSPmNPJBzHHeV">
    <mxGraphModel>
      <root>
        <mxCell id="0" />
        <mxCell id="1" parent="0" />
      </root>
    </mxGraphModel>
  </diagram>
</mxfile>
